<?xml version="1.0" standalone="no"?>
<!DOCTYPE svg PUBLIC "-//W3C//DTD SVG 20010904//EN"
 "http://www.w3.org/TR/2001/REC-SVG-20010904/DTD/svg10.dtd">
<svg version="1.0" xmlns="http://www.w3.org/2000/svg"
 width="1200.000000pt" height="1200.000000pt" viewBox="0 0 1200.000000 1200.000000"
 preserveAspectRatio="xMidYMid meet">

<g transform="translate(0.000000,1200.000000) scale(0.100000,-0.100000)"
fill="#000000" stroke="none">
<path d="M2883 5540 c-58 -12 -152 -51 -219 -91 -204 -123 -263 -371 -100
-417 26 -8 49 -12 52 -10 2 2 -1 22 -7 43 -26 93 22 249 97 314 33 30 113 76
119 69 3 -3 25 -867 25 -961 l0 -48 106 3 107 3 136 367 c75 202 139 368 142
368 4 0 10 -167 14 -370 l7 -371 106 3 105 3 199 530 c109 292 200 538 204
548 5 15 -1 17 -44 17 l-49 0 -148 -432 c-81 -238 -151 -439 -155 -446 -9 -19
-20 307 -20 621 l0 257 -94 0 -94 0 -59 -172 c-33 -95 -102 -296 -154 -447
-93 -271 -94 -273 -101 -225 -3 27 -7 189 -7 360 -1 171 -4 352 -7 402 l-7 92
-56 -1 c-31 -1 -75 -5 -98 -9z"/>
<path d="M6180 5541 c-131 -24 -210 -108 -210 -222 0 -45 4 -55 35 -86 32 -32
40 -35 78 -31 24 3 55 13 70 23 l27 17 -25 30 c-20 23 -25 41 -25 83 0 72 27
105 91 112 41 5 50 2 80 -25 34 -30 34 -31 34 -119 -1 -74 -5 -97 -27 -145
-43 -92 -96 -165 -206 -281 -120 -128 -182 -206 -214 -271 -26 -53 -56 -68
-97 -45 -37 21 -38 68 -2 218 41 170 48 255 24 301 -10 19 -33 45 -52 57 -62
42 -194 24 -240 -31 -22 -26 -29 -18 -21 19 l8 36 -106 -3 -106 -3 -49 -235
-49 -235 -46 -48 c-64 -65 -137 -100 -214 -101 -54 -1 -62 2 -84 27 -20 23
-24 39 -24 92 l0 63 43 7 c105 17 215 90 261 175 56 104 42 214 -34 253 -53
27 -168 19 -239 -17 -132 -68 -230 -241 -247 -440 -8 -83 -29 -119 -79 -136
-45 -15 -71 -6 -83 30 -11 30 -6 61 38 245 29 118 31 221 7 258 -34 52 -74 68
-154 65 -62 -3 -77 -8 -117 -36 l-46 -33 6 28 c3 15 20 96 38 178 18 83 32
152 30 154 -2 2 -49 -2 -107 -9 l-103 -12 -104 -487 c-57 -267 -105 -494 -108
-503 -4 -16 6 -18 102 -18 58 0 106 2 106 4 0 19 103 488 112 510 22 55 67 96
104 96 64 0 69 -53 24 -253 -61 -274 -27 -362 140 -361 78 1 113 17 167 78
l39 45 17 -32 c39 -72 145 -108 258 -88 81 14 150 48 217 106 53 48 59 46 43
-15 -5 -19 -12 -47 -15 -62 l-6 -28 105 0 c100 0 105 1 110 23 3 12 27 127 54
255 50 234 68 285 114 317 30 21 74 19 87 -4 17 -32 11 -110 -16 -221 -32
-130 -42 -247 -24 -290 42 -101 179 -117 259 -30 29 32 29 32 24 6 -10 -51 0
-57 61 -35 71 24 88 24 221 -6 129 -29 260 -33 305 -10 45 23 63 68 68 170 l5
89 -37 -32 c-68 -59 -88 -65 -205 -58 -175 10 -241 18 -241 28 0 18 103 116
239 231 147 122 217 204 251 294 28 73 36 164 20 223 -15 57 -80 123 -135 139
-55 16 -171 22 -225 12z m-1135 -438 c14 -13 16 -28 12 -70 -10 -95 -84 -189
-167 -214 -22 -7 -42 -10 -45 -7 -7 7 33 134 57 183 39 76 81 121 120 124 4 1
14 -7 23 -16z"/>
<path d="M7033 5539 c-160 -27 -327 -139 -388 -263 -18 -36 -25 -66 -25 -108
0 -95 25 -125 117 -143 l32 -6 -11 31 c-6 18 -8 64 -6 105 9 131 81 235 206
293 50 24 69 27 159 27 98 0 102 -1 140 -31 22 -18 44 -47 52 -71 38 -106 -60
-267 -176 -289 -18 -4 -36 -5 -38 -3 -2 2 12 76 31 163 18 88 33 161 31 162
-3 3 -210 -25 -212 -29 -3 -5 -196 -922 -195 -929 0 -5 46 -8 103 -8 l102 0
60 283 60 282 63 3 c60 3 65 1 96 -30 53 -53 68 -138 45 -250 -31 -145 -114
-204 -207 -148 -31 19 -33 19 -40 3 -3 -10 -6 -37 -6 -61 1 -67 35 -95 119
-100 90 -6 146 12 205 65 60 54 104 139 126 243 35 168 -8 288 -120 335 l-39
16 35 24 c36 25 80 82 97 128 16 41 13 122 -5 165 -50 121 -207 175 -411 141z"/>
<path d="M9079 5458 l-76 -10 -47 -227 c-27 -124 -52 -231 -58 -238 -11 -13
-115 -39 -124 -31 -3 3 -9 33 -14 67 -16 114 -77 171 -183 171 -116 0 -224
-60 -290 -160 -27 -42 -40 -53 -81 -65 -79 -24 -83 -22 -90 39 -9 66 -41 133
-79 160 -38 28 -139 34 -210 11 -162 -51 -280 -239 -294 -467 -7 -114 8 -166
60 -215 41 -39 84 -53 162 -53 89 0 147 23 209 84 66 64 112 158 134 269 l17
86 42 10 c23 6 46 11 51 11 4 0 0 -33 -10 -72 -10 -40 -19 -110 -19 -155 -1
-102 23 -161 84 -201 37 -25 49 -27 136 -27 114 0 149 14 222 87 60 60 107
157 127 264 l16 82 59 16 c33 9 61 15 63 14 1 -2 -17 -95 -42 -208 -24 -113
-46 -217 -50 -232 l-6 -28 105 0 105 0 10 48 c6 26 23 107 38 181 28 133 28
134 67 162 45 33 87 37 112 12 14 -13 16 -28 11 -77 -19 -181 -18 -230 4 -264
22 -36 64 -58 128 -68 32 -5 49 -1 82 17 66 37 111 132 57 122 -12 -2 -34 0
-50 6 -24 9 -27 16 -27 53 0 24 5 59 10 78 17 57 14 146 -7 187 -25 50 -60 74
-122 81 l-52 7 137 95 137 95 -67 3 -66 3 -142 -111 c-77 -61 -142 -109 -144
-107 -3 3 54 283 96 470 8 37 8 37 -24 36 -17 -1 -65 -6 -107 -11z m-1094
-381 c21 -30 19 -56 -7 -77 -29 -23 -30 -96 -2 -117 16 -12 17 -18 5 -74 -16
-80 -50 -156 -91 -202 -26 -31 -39 -37 -70 -37 -46 0 -67 18 -76 66 -13 73 26
255 77 355 53 106 124 143 164 86z m642 11 c25 -20 24 -58 -2 -89 -31 -37 -32
-82 -4 -110 20 -20 21 -25 9 -81 -17 -79 -71 -189 -105 -216 -33 -26 -96 -30
-116 -6 -34 41 -19 203 32 334 60 155 125 215 186 168z"/>
</g>
</svg>
