<svg id="svg" version="1.1" xmlns="http://www.w3.org/2000/svg" xmlns:xlink="http://www.w3.org/1999/xlink" width="400" height="400" viewBox="0, 0, 400,400"><g id="svgg"><path id="path0" d="M96.449 215.365 C 85.026 217.273,76.989 230.686,86.219 232.438 L 87.272 232.638 86.929 231.402 C 86.059 228.265,87.238 223.840,89.636 221.238 C 90.931 219.833,93.779 218.001,94.127 218.349 C 94.297 218.519,95.000 242.967,95.000 248.705 L 95.000 252.000 98.465 252.000 L 101.931 252.000 106.489 239.750 C 111.867 225.294,111.654 225.645,111.713 231.183 C 111.738 233.558,111.850 239.175,111.963 243.667 L 112.167 251.833 115.555 251.928 L 118.944 252.023 119.672 250.095 C 121.306 245.766,131.773 217.742,132.189 216.583 L 132.637 215.333 131.069 215.335 L 129.500 215.338 127.770 220.419 C 126.819 223.213,124.494 230.000,122.603 235.500 L 119.167 245.500 118.950 242.667 C 118.830 241.108,118.717 235.108,118.697 229.333 C 118.677 223.558,118.566 218.046,118.451 217.083 L 118.240 215.333 115.360 215.333 L 112.479 215.333 107.323 230.333 C 104.487 238.583,102.054 245.333,101.917 245.333 C 101.779 245.333,101.667 241.232,101.667 236.220 C 101.667 231.208,101.568 224.383,101.447 221.053 L 101.228 215.000 99.697 215.039 C 98.855 215.060,97.394 215.207,96.449 215.365 M206.072 215.354 C 199.353 216.539,196.076 225.059,201.792 226.483 C 203.561 226.924,206.441 225.538,205.347 224.772 C 204.538 224.205,203.907 222.023,204.188 220.762 C 204.611 218.865,204.735 218.649,205.674 218.163 C 208.868 216.511,211.333 218.368,211.333 222.426 C 211.333 227.149,209.261 230.756,202.241 238.254 C 198.552 242.194,196.607 244.825,195.840 246.916 C 195.587 247.604,195.370 248.009,195.357 247.817 C 195.344 247.622,194.853 247.521,194.250 247.589 C 191.559 247.891,191.334 246.425,193.006 239.500 C 194.300 234.145,194.439 231.302,193.489 229.667 C 191.780 226.727,186.793 226.520,183.880 229.268 L 182.927 230.167 183.160 228.750 L 183.392 227.333 180.065 227.333 C 176.894 227.333,176.730 227.368,176.551 228.083 C 176.447 228.496,175.678 232.056,174.842 235.996 L 173.321 243.158 171.579 244.922 C 167.666 248.884,161.973 249.525,161.025 246.110 C 160.213 243.188,160.624 242.136,162.753 241.679 C 172.937 239.495,176.205 227.013,166.596 227.002 C 160.161 226.994,154.768 233.798,153.814 243.127 C 153.441 246.782,150.613 248.946,148.704 247.038 C 147.775 246.108,147.804 245.669,149.167 240.000 C 150.528 234.338,150.694 231.095,149.705 229.473 C 148.033 226.733,143.001 226.612,140.250 229.247 C 139.103 230.346,139.095 230.492,140.531 223.655 C 141.190 220.518,141.660 217.882,141.575 217.797 C 141.490 217.712,139.947 217.839,138.147 218.079 L 134.873 218.516 132.275 230.674 C 130.847 237.362,129.242 244.896,128.708 247.417 L 127.739 252.000 131.124 252.000 L 134.509 252.000 136.239 243.832 C 138.417 233.555,139.282 231.667,141.812 231.667 C 144.021 231.667,144.206 233.564,142.667 240.446 C 141.570 245.350,141.417 247.887,142.135 249.267 C 144.146 253.131,149.952 253.176,153.026 249.351 L 154.087 248.031 154.801 249.091 C 157.863 253.633,165.422 253.142,170.757 248.053 C 172.402 246.484,172.687 246.316,172.531 247.009 C 172.428 247.462,172.137 248.771,171.883 249.917 L 171.423 252.000 174.823 252.000 L 178.224 252.000 179.976 243.758 C 182.139 233.581,183.017 231.667,185.522 231.667 C 187.807 231.667,187.974 233.484,186.353 240.709 C 185.231 245.707,185.098 247.791,185.793 249.455 C 187.358 253.200,193.167 253.015,194.866 249.167 C 195.298 248.189,195.308 248.209,195.320 250.092 L 195.333 252.017 196.371 251.481 C 198.205 250.532,200.511 250.529,204.559 251.468 C 213.823 253.619,216.540 252.423,216.915 246.032 L 217.082 243.167 215.958 244.213 C 213.509 246.490,211.883 246.691,203.083 245.798 C 199.993 245.484,200.579 244.489,207.000 239.149 C 214.979 232.512,217.017 229.928,217.993 225.210 C 219.444 218.191,214.265 213.909,206.072 215.354 M234.774 215.366 C 230.692 216.048,226.289 218.361,223.675 221.196 C 219.550 225.671,219.632 231.369,223.833 232.272 L 225.167 232.558 225.167 229.029 C 225.167 225.855,225.255 225.332,226.049 223.833 C 231.330 213.852,247.965 215.791,243.203 225.833 C 241.500 229.425,235.847 232.716,236.474 229.750 C 236.581 229.246,237.102 226.772,237.632 224.253 L 238.596 219.672 237.881 219.828 C 237.488 219.914,235.977 220.141,234.523 220.331 C 233.069 220.521,231.805 220.751,231.715 220.841 C 231.571 220.985,225.038 251.104,225.011 251.750 C 225.005 251.887,226.494 252.000,228.320 252.000 L 231.641 252.000 231.961 250.750 C 232.137 250.063,233.069 245.787,234.032 241.250 L 235.783 233.000 237.742 233.000 C 241.349 233.000,242.660 234.402,242.929 238.549 C 243.377 245.454,239.333 250.289,235.579 247.336 C 234.577 246.548,234.333 246.882,234.333 249.049 C 234.333 253.762,242.081 254.101,245.809 249.552 C 251.066 243.136,250.560 232.229,244.953 231.107 C 243.718 230.860,243.730 230.822,245.514 229.251 C 253.312 222.387,246.383 213.428,234.774 215.366 M302.855 218.130 L 300.209 218.500 299.637 221.167 C 299.323 222.633,298.581 226.111,297.989 228.894 C 296.784 234.563,296.643 234.749,293.549 234.808 L 292.181 234.833 291.937 232.925 C 290.974 225.395,281.663 224.839,276.606 232.010 C 275.143 234.084,274.369 234.583,272.141 234.888 C 270.553 235.106,270.602 235.174,270.204 232.217 C 269.086 223.911,257.402 225.876,253.184 235.079 C 249.718 242.644,250.393 249.363,254.820 251.373 C 261.128 254.239,268.094 249.037,269.888 240.121 C 270.179 238.679,270.457 237.453,270.507 237.396 C 270.628 237.257,274.000 236.370,274.000 236.477 C 274.000 236.523,273.700 237.733,273.333 239.167 C 271.247 247.324,273.730 251.973,280.185 251.993 C 285.691 252.010,290.132 247.371,291.512 240.160 C 291.787 238.721,292.070 237.485,292.141 237.415 C 292.373 237.182,296.069 236.291,296.211 236.433 C 296.317 236.539,294.131 247.408,293.198 251.417 C 293.076 251.943,293.395 252.000,296.460 252.000 L 299.857 252.000 301.148 245.817 L 302.438 239.633 303.832 238.817 C 306.896 237.021,308.176 237.845,307.864 241.413 C 307.227 248.718,307.220 248.417,308.056 249.649 C 309.665 252.019,313.252 252.930,315.225 251.469 C 317.177 250.024,318.473 247.185,317.005 247.569 C 314.662 248.181,313.742 246.718,314.477 243.547 C 315.874 237.525,313.660 233.436,309.347 234.069 C 307.825 234.292,308.070 234.028,311.568 231.667 C 313.333 230.475,315.464 229.012,316.304 228.417 L 317.831 227.333 315.615 227.333 L 313.398 227.333 308.680 231.036 C 306.085 233.073,303.880 234.658,303.781 234.559 C 303.681 234.459,304.365 230.756,305.300 226.329 C 306.235 221.902,307.000 218.142,307.000 217.973 C 307.000 217.612,306.397 217.635,302.855 218.130 M168.334 229.834 C 170.396 232.319,165.673 239.667,162.013 239.667 C 161.157 239.667,161.161 239.580,162.155 236.434 C 163.764 231.342,166.850 228.046,168.334 229.834 M266.250 230.582 C 266.865 231.387,266.757 232.576,266.000 233.333 C 265.115 234.218,265.084 236.452,265.948 237.064 C 267.226 237.969,264.535 245.803,262.485 247.146 C 258.828 249.542,257.005 245.721,258.665 239.137 C 260.446 232.073,264.176 227.866,266.250 230.582 M287.127 229.985 C 288.200 230.393,288.709 232.476,287.889 233.100 C 286.651 234.042,286.528 235.834,287.615 237.097 C 289.486 239.273,285.122 247.667,282.120 247.667 C 278.713 247.667,278.786 240.714,282.267 233.674 C 283.875 230.424,285.345 229.307,287.127 229.985 " stroke="none" fill="#064645" fill-rule="evenodd"></path><path id="path1" d="M194.833 139.034 C 162.225 142.435,141.258 174.632,151.279 205.916 L 152.587 209.998 106.327 210.082 L 60.068 210.167 68.368 222.250 L 76.667 234.333 68.368 246.417 L 60.068 258.500 130.034 258.584 C 168.515 258.630,231.486 258.630,269.969 258.584 L 339.938 258.500 331.628 246.417 L 323.318 234.333 331.628 222.250 L 339.938 210.167 293.600 210.082 C 256.765 210.015,247.295 209.912,247.422 209.582 C 261.425 172.951,233.161 135.035,194.833 139.034 M204.930 145.013 C 234.478 148.171,253.274 179.795,241.824 207.083 L 240.600 210.000 200.012 210.000 L 159.424 210.000 158.570 208.083 C 144.515 176.540,170.401 141.322,204.930 145.013 M200.229 162.268 L 199.333 163.203 199.333 176.304 C 199.333 186.652,199.246 189.369,198.917 189.237 C 198.688 189.145,192.816 186.579,185.869 183.535 C 178.143 180.149,172.822 178.000,172.168 178.000 C 169.855 178.000,168.464 180.866,169.917 182.638 C 170.495 183.343,199.678 196.397,201.640 196.827 C 202.748 197.071,204.465 196.340,204.793 195.485 C 204.907 195.188,205.000 187.751,205.000 178.957 L 205.000 162.968 204.118 162.151 C 202.896 161.019,201.382 161.064,200.229 162.268 M92.474 169.473 C 90.516 170.325,90.210 172.997,91.916 174.339 C 93.244 175.383,141.767 175.374,143.096 174.329 C 144.871 172.933,144.414 170.108,142.294 169.369 C 140.615 168.784,93.832 168.882,92.474 169.473 M257.414 169.495 C 255.502 170.332,255.130 172.514,256.641 174.026 L 257.615 175.000 282.330 175.000 C 299.396 175.000,307.252 174.889,307.717 174.640 C 309.400 173.739,309.550 171.227,308.003 169.833 C 307.020 168.947,259.393 168.628,257.414 169.495 M78.167 191.385 C 76.407 192.347,76.086 194.672,77.527 196.025 L 78.387 196.833 103.389 196.833 L 128.391 196.833 129.196 195.898 C 130.470 194.416,130.091 192.119,128.448 191.370 C 127.312 190.853,79.114 190.867,78.167 191.385 M271.500 191.403 C 269.803 192.376,269.494 194.375,270.804 195.898 L 271.609 196.833 296.667 196.833 L 321.724 196.833 322.529 195.898 C 323.804 194.416,323.424 192.119,321.781 191.370 C 320.611 190.837,272.432 190.868,271.500 191.403 M101.712 221.917 C 101.737 225.721,101.849 232.388,101.962 236.732 L 102.167 244.630 107.167 229.986 L 112.167 215.342 115.364 215.338 L 118.560 215.333 118.779 222.583 C 118.900 226.571,118.999 233.121,118.999 237.139 C 119.000 241.157,119.105 244.340,119.232 244.212 C 119.360 244.084,121.659 237.572,124.341 229.740 L 129.217 215.500 131.072 215.401 L 132.927 215.302 128.350 227.568 C 125.832 234.314,122.749 242.571,121.497 245.917 L 119.221 252.000 115.662 252.000 L 112.102 252.000 111.886 248.250 C 111.767 246.188,111.654 242.025,111.635 239.000 C 111.616 235.975,111.503 232.228,111.384 230.673 L 111.167 227.846 106.678 239.923 L 102.189 252.000 98.628 252.000 L 95.068 252.000 94.877 249.750 C 94.771 248.512,94.603 242.175,94.501 235.667 C 94.400 229.158,94.228 222.601,94.120 221.095 L 93.923 218.356 92.909 218.880 C 88.666 221.075,85.830 227.496,87.274 231.639 C 87.936 233.540,83.799 232.532,82.768 230.542 C 79.537 224.302,89.296 215.112,99.250 215.022 L 101.667 215.000 101.712 221.917 M214.043 215.783 C 217.314 217.204,218.471 219.372,218.285 223.732 C 218.064 228.925,215.922 231.956,207.492 239.006 C 204.909 241.167,202.404 243.448,201.925 244.076 L 201.054 245.219 204.782 245.776 C 211.293 246.749,213.611 246.385,215.812 244.042 C 217.292 242.468,217.455 242.677,217.230 245.861 C 216.783 252.203,214.180 253.690,206.500 251.993 C 201.895 250.975,198.482 250.789,196.859 251.468 C 195.129 252.190,195.000 252.155,195.000 250.965 L 195.000 249.931 193.840 250.949 C 191.090 253.364,187.005 252.604,185.594 249.414 C 184.767 247.543,184.876 246.073,186.321 239.608 C 187.707 233.411,187.532 231.667,185.527 231.667 C 183.313 231.667,182.315 233.961,180.221 243.861 L 178.500 251.999 174.917 252.000 C 172.266 252.000,171.336 251.892,171.345 251.583 C 171.351 251.354,171.559 250.225,171.806 249.075 L 172.254 246.983 170.618 248.513 C 165.739 253.077,157.530 253.576,154.840 249.473 L 154.173 248.454 152.670 249.987 C 149.707 253.011,144.955 253.191,142.581 250.369 C 140.950 248.431,140.994 247.150,143.030 237.309 C 143.841 233.388,143.600 231.944,142.097 231.729 C 139.685 231.384,138.703 233.477,136.563 243.532 L 134.797 251.833 131.232 251.928 C 127.994 252.014,127.668 251.968,127.677 251.428 C 127.689 250.705,134.537 218.685,134.718 218.504 C 134.894 218.329,141.805 217.380,141.948 217.512 C 142.011 217.570,141.523 220.185,140.865 223.322 C 140.206 226.459,139.667 229.091,139.667 229.170 C 139.667 229.249,140.212 228.943,140.879 228.490 C 144.289 226.176,148.728 226.848,150.175 229.897 C 150.959 231.551,150.697 234.911,149.360 240.325 C 147.855 246.420,147.983 247.333,150.342 247.333 C 152.244 247.333,153.663 245.461,153.672 242.939 C 153.706 232.943,162.808 224.404,170.155 227.474 C 176.088 229.953,170.371 240.824,162.583 241.873 L 161.000 242.086 161.000 243.660 C 161.000 247.029,161.839 248.005,164.728 247.993 C 167.620 247.981,172.078 245.306,172.956 243.056 C 173.257 242.284,176.333 228.170,176.333 227.560 C 176.333 227.435,177.995 227.333,180.026 227.333 L 183.720 227.333 183.498 228.343 L 183.276 229.352 184.517 228.510 C 187.871 226.234,192.356 226.810,193.856 229.710 C 194.665 231.275,194.357 235.200,192.991 240.739 C 191.615 246.319,191.726 247.109,193.907 247.268 C 195.250 247.366,195.327 247.318,196.026 245.935 C 197.173 243.662,198.892 241.477,202.766 237.364 C 211.119 228.497,213.862 220.014,209.024 218.010 C 205.528 216.562,202.890 221.099,205.318 224.384 L 206.019 225.332 204.926 225.998 C 200.172 228.897,196.603 222.798,200.375 218.221 C 202.791 215.290,209.962 214.011,214.043 215.783 M243.077 215.663 C 249.320 217.591,250.851 224.070,246.199 228.873 L 244.431 230.699 245.620 231.195 C 251.126 233.496,251.124 244.240,245.617 249.971 C 240.634 255.158,232.100 253.039,234.332 247.170 L 234.664 246.297 235.780 247.149 C 239.122 249.698,242.303 246.478,242.607 240.239 C 242.856 235.119,241.437 233.004,237.750 233.001 C 236.787 233.001,236.000 233.056,236.000 233.125 C 236.000 233.284,232.364 250.244,232.114 251.250 C 231.935 251.971,231.785 252.000,228.291 252.000 C 224.689 252.000,224.656 251.993,224.832 251.250 C 224.930 250.838,226.429 243.836,228.164 235.691 C 229.899 227.546,231.481 220.782,231.680 220.659 C 232.173 220.354,238.384 219.607,238.604 219.826 C 238.700 219.923,238.302 222.289,237.719 225.084 C 236.449 231.177,236.460 230.727,237.583 230.467 C 243.321 229.137,245.872 221.047,241.425 218.282 C 239.638 217.171,234.954 217.169,232.500 218.278 C 226.644 220.924,223.875 226.447,225.556 232.132 C 225.996 233.622,222.016 232.256,220.983 230.562 C 216.286 222.858,232.019 212.248,243.077 215.663 M307.333 217.676 C 307.333 217.864,306.580 221.566,305.659 225.902 C 304.738 230.239,304.026 233.911,304.077 234.063 C 304.127 234.216,306.170 232.763,308.615 230.837 L 313.062 227.333 315.576 227.333 C 318.520 227.333,318.804 226.957,312.667 231.188 L 308.833 233.830 310.517 234.037 C 314.636 234.544,315.965 237.367,314.822 243.182 C 314.090 246.905,314.271 247.333,316.577 247.333 C 318.039 247.333,318.067 247.354,317.854 248.250 C 316.867 252.407,311.201 253.716,308.334 250.450 C 306.974 248.901,306.793 247.427,307.473 243.433 C 308.340 238.336,307.355 236.947,304.190 238.802 C 302.575 239.748,302.831 239.018,300.907 248.167 L 300.135 251.833 296.568 251.928 C 293.566 252.008,293.000 251.943,293.000 251.519 C 293.000 251.242,293.675 247.859,294.500 244.000 C 295.325 240.141,296.000 236.853,296.000 236.693 C 296.000 236.533,295.146 236.655,294.103 236.965 L 292.207 237.528 291.807 239.847 C 290.487 247.520,286.015 252.176,280.000 252.143 C 273.435 252.107,270.738 246.802,273.175 238.717 C 273.819 236.580,273.838 236.609,272.068 237.059 C 271.049 237.317,270.621 237.613,270.524 238.125 C 269.459 243.754,268.435 246.207,266.118 248.684 C 261.581 253.535,254.203 253.468,251.574 248.552 C 250.106 245.807,250.772 239.532,253.036 234.767 C 257.697 224.959,270.649 224.089,270.665 233.583 C 270.667 234.601,270.738 234.667,271.844 234.667 C 273.182 234.667,275.333 233.867,275.333 233.369 C 275.333 233.187,276.196 232.106,277.250 230.966 C 283.317 224.409,292.333 226.059,292.333 233.727 C 292.333 234.792,293.575 235.012,295.600 234.307 C 296.752 233.905,296.505 234.709,298.800 223.902 C 300.127 217.653,299.490 218.466,303.512 217.885 C 305.339 217.621,306.946 217.389,307.083 217.369 C 307.221 217.350,307.333 217.487,307.333 217.676 M165.509 230.582 C 163.914 232.177,161.093 238.871,161.742 239.520 C 162.418 240.196,166.081 237.716,167.181 235.839 C 169.530 231.830,168.258 227.833,165.509 230.582 M262.880 230.690 C 259.939 233.003,257.104 244.430,258.852 246.926 C 260.712 249.581,264.215 246.229,265.695 240.379 L 266.371 237.705 265.686 237.019 C 264.786 236.119,264.776 234.306,265.667 233.500 C 267.818 231.553,265.173 228.886,262.880 230.690 M284.615 230.636 C 280.243 234.075,278.292 247.667,282.170 247.667 C 284.907 247.667,289.197 238.853,287.296 237.133 C 286.430 236.349,286.451 234.216,287.333 233.333 C 289.316 231.350,286.836 228.889,284.615 230.636 " stroke="none" fill="#cbe3db" fill-rule="evenodd"></path><path id="path2" d="M101.461 219.167 C 101.461 221.367,101.515 222.223,101.580 221.070 C 101.646 219.917,101.645 218.117,101.579 217.070 C 101.513 216.023,101.460 216.967,101.461 219.167 M118.417 216.500 C 118.421 217.233,118.489 217.494,118.569 217.079 C 118.649 216.665,118.646 216.065,118.562 215.746 C 118.479 215.427,118.414 215.767,118.417 216.500 M94.445 228.000 C 94.445 229.375,94.504 229.938,94.576 229.250 C 94.648 228.563,94.648 227.438,94.576 226.750 C 94.504 226.063,94.445 226.625,94.445 228.000 M256.146 230.417 L 255.167 231.500 256.250 230.521 C 256.846 229.983,257.333 229.495,257.333 229.438 C 257.333 229.180,257.058 229.407,256.146 230.417 M150.424 232.667 C 150.424 233.492,150.489 233.829,150.569 233.417 C 150.648 233.004,150.648 232.329,150.569 231.917 C 150.489 231.504,150.424 231.842,150.424 232.667 M118.794 236.833 C 118.795 239.033,118.849 239.890,118.914 238.737 C 118.979 237.584,118.979 235.784,118.913 234.737 C 118.847 233.690,118.793 234.633,118.794 236.833 M202.655 237.583 L 200.833 239.500 202.750 237.678 C 204.531 235.985,204.819 235.667,204.572 235.667 C 204.520 235.667,203.657 236.529,202.655 237.583 M111.779 239.667 C 111.779 241.042,111.838 241.604,111.909 240.917 C 111.981 240.229,111.981 239.104,111.909 238.417 C 111.838 237.729,111.779 238.292,111.779 239.667 M101.720 241.917 C 101.691 243.796,101.779 245.334,101.917 245.334 C 102.054 245.334,102.126 244.247,102.075 242.917 C 101.919 238.766,101.776 238.362,101.720 241.917 M94.779 242.333 C 94.779 243.708,94.838 244.271,94.909 243.583 C 94.981 242.896,94.981 241.771,94.909 241.083 C 94.838 240.396,94.779 240.958,94.779 242.333 M160.751 244.167 C 160.754 244.900,160.823 245.161,160.902 244.746 C 160.982 244.331,160.979 243.731,160.896 243.413 C 160.812 243.094,160.747 243.433,160.751 244.167 M272.417 244.500 C 272.421 245.233,272.489 245.494,272.569 245.079 C 272.649 244.665,272.646 244.065,272.562 243.746 C 272.479 243.427,272.414 243.767,272.417 244.500 M148.077 245.333 C 148.077 245.975,148.146 246.237,148.230 245.917 C 148.314 245.596,148.314 245.071,148.230 244.750 C 148.146 244.429,148.077 244.692,148.077 245.333 M171.145 247.756 L 169.833 249.166 171.163 248.000 C 171.894 247.358,172.557 246.796,172.635 246.750 C 172.714 246.704,172.706 246.594,172.617 246.506 C 172.529 246.418,171.866 246.980,171.145 247.756 M265.479 249.083 L 264.500 250.167 265.583 249.188 C 266.179 248.649,266.667 248.162,266.667 248.104 C 266.667 247.847,266.392 248.074,265.479 249.083 M194.947 248.917 C 194.875 249.237,194.911 250.100,195.027 250.833 C 195.225 252.078,195.242 252.040,195.286 250.250 C 195.333 248.342,195.196 247.805,194.947 248.917 " stroke="none" fill="#598c88" fill-rule="evenodd"></path><path id="path3" d="M94.095 219.833 C 94.098 220.750,94.163 221.085,94.239 220.579 C 94.316 220.072,94.314 219.322,94.235 218.912 C 94.156 218.502,94.093 218.917,94.095 219.833 M89.812 221.083 L 88.833 222.167 89.917 221.188 C 90.926 220.275,91.153 220.000,90.896 220.000 C 90.838 220.000,90.351 220.487,89.812 221.083 M198.744 222.667 C 198.744 223.308,198.813 223.571,198.896 223.250 C 198.980 222.929,198.980 222.404,198.896 222.083 C 198.813 221.762,198.744 222.025,198.744 222.667 M248.751 222.833 C 248.754 223.567,248.823 223.827,248.902 223.413 C 248.982 222.998,248.979 222.398,248.896 222.079 C 248.812 221.761,248.747 222.100,248.751 222.833 M118.795 229.000 C 118.795 231.292,118.848 232.229,118.913 231.083 C 118.979 229.938,118.979 228.063,118.913 226.917 C 118.848 225.771,118.795 226.708,118.795 229.000 M111.262 229.416 C 111.433 232.568,111.566 232.879,111.617 230.250 C 111.644 228.829,111.554 227.667,111.417 227.666 C 111.279 227.666,111.210 228.454,111.262 229.416 M94.445 233.000 C 94.445 234.375,94.504 234.938,94.576 234.250 C 94.648 233.563,94.648 232.438,94.576 231.750 C 94.504 231.063,94.445 231.625,94.445 233.000 M101.794 234.500 C 101.795 236.700,101.849 237.557,101.914 236.404 C 101.979 235.251,101.979 233.451,101.913 232.404 C 101.847 231.357,101.793 232.300,101.794 234.500 M242.757 239.333 C 242.757 240.158,242.822 240.496,242.902 240.083 C 242.981 239.671,242.981 238.996,242.902 238.583 C 242.822 238.171,242.757 238.508,242.757 239.333 M111.781 244.500 C 111.782 245.967,111.841 246.525,111.911 245.741 C 111.982 244.957,111.981 243.757,111.909 243.075 C 111.837 242.392,111.780 243.033,111.781 244.500 M279.770 243.833 C 279.772 244.933,279.834 245.343,279.908 244.744 C 279.982 244.145,279.981 243.245,279.905 242.744 C 279.829 242.243,279.768 242.733,279.770 243.833 M250.744 243.333 C 250.744 243.975,250.813 244.237,250.896 243.917 C 250.980 243.596,250.980 243.071,250.896 242.750 C 250.813 242.429,250.744 242.692,250.744 243.333 M258.084 243.833 C 258.088 244.567,258.156 244.827,258.236 244.413 C 258.315 243.998,258.312 243.398,258.229 243.079 C 258.146 242.761,258.080 243.100,258.084 243.833 M215.812 244.083 L 214.833 245.167 215.899 244.205 L 216.964 243.243 217.086 245.205 L 217.207 247.167 217.270 245.083 C 217.342 242.700,217.169 242.582,215.812 244.083 M94.781 247.167 C 94.782 248.633,94.841 249.192,94.911 248.408 C 94.982 247.624,94.981 246.424,94.909 245.741 C 94.837 245.059,94.780 245.700,94.781 247.167 M185.095 246.833 C 185.098 247.750,185.163 248.085,185.239 247.579 C 185.316 247.072,185.314 246.322,185.235 245.912 C 185.156 245.502,185.093 245.917,185.095 246.833 M199.254 250.902 C 199.669 250.982,200.269 250.979,200.587 250.896 C 200.906 250.812,200.567 250.747,199.833 250.751 C 199.100 250.754,198.839 250.823,199.254 250.902 " stroke="none" fill="#7aa3a0" fill-rule="evenodd"></path><path id="path4" d="M210.583 252.569 C 210.996 252.648,211.671 252.648,212.083 252.569 C 212.496 252.489,212.158 252.424,211.333 252.424 C 210.508 252.424,210.171 252.489,210.583 252.569 " stroke="none" fill="#648c8c" fill-rule="evenodd"></path></g></svg>